{
	"asset":{
		"generator":"Khronos glTF Blender I/O v3.6.28",
		"version":"2.0"
	},
	"scene":0,
	"scenes":[
		{
			"name":"Scene",
			"nodes":[
				0,
				1,
				2,
				3,
				4,
				5,
				6
			]
		}
	],
	"nodes":[
		{
			"mesh":0,
			"name":"\ubc11\ud310",
			"scale":[
				1,
				1,
				1.7055634260177612
			],
			"translation":[
				-1.6683835983276367,
				0,
				-2.5973997116088867
			]
		},
		{
			"mesh":1,
			"name":"\uc678\uac01\ud2c0",
			"scale":[
				7.317889213562012,
				0.6427104473114014,
				0.3866047263145447
			],
			"translation":[
				-1.7379150390625,
				2.527588367462158,
				4.071348667144775
			]
		},
		{
			"mesh":2,
			"name":"\uc720\ub9ac",
			"rotation":[
				-0.5,
				-0.5,
				0.5,
				0.5
			],
			"scale":[
				2.166302442550659,
				0.1249934732913971,
				1
			],
			"translation":[
				-1.4551324844360352,
				5.279940128326416,
				9.523063659667969
			]
		},
		{
			"mesh":3,
			"name":"\ud559\uad50\uc774\ub984\ud45c\uae30\ucc3d",
			"scale":[
				1.4201180934906006,
				0.47643688321113586,
				1.2532529830932617
			],
			"translation":[
				-1.6842025518417358,
				13.928227424621582,
				-2.711524486541748
			]
		},
		{
			"mesh":4,
			"name":"\uac00\ucc9c\ub300\ud559\uad50",
			"rotation":[
				0.5058071613311768,
				0.49438896775245667,
				-0.5010111331939697,
				0.4987248480319977
			],
			"scale":[
				1.40786874294281,
				7.182920455932617,
				1.45912504196167
			],
			"translation":[
				2.852024555206299,
				13.408720970153809,
				0.28110986948013306
			]
		},
		{
			"mesh":5,
			"name":"\uac00\ucc9c\ub300\ub85c\uace0",
			"rotation":[
				0.5173293948173523,
				0.48236316442489624,
				-0.48729586601257324,
				0.5120925307273865
			],
			"scale":[
				0.024009373039007187,
				0.1123294085264206,
				0.024737263098359108
			],
			"translation":[
				3.5477473735809326,
				14.029512405395508,
				2.133176803588867
			]
		},
		{
			"mesh":6,
			"name":"\ucd9c\uc785\uad6c",
			"scale":[
				0.20828025043010712,
				1.3144067525863647,
				0.224262535572052
			],
			"translation":[
				7.925058364868164,
				1.447821855545044,
				3.7661845684051514
			]
		}
	],
	"materials":[
		{
			"doubleSided":true,
			"name":"Material.020",
			"pbrMetallicRoughness":{
				"baseColorFactor":[
					0.5088813900947571,
					0.48514997959136963,
					0.40197786688804626,
					1
				],
				"metallicFactor":0,
				"roughnessFactor":0.5
			}
		},
		{
			"alphaMode":"BLEND",
			"doubleSided":true,
			"name":"Material.012",
			"pbrMetallicRoughness":{
				"baseColorFactor":[
					0.02315336838364601,
					0.04518621414899826,
					0.11697071045637131,
					1
				],
				"metallicFactor":0,
				"roughnessFactor":0.5
			}
		},
		{
			"doubleSided":true,
			"name":"Material.021",
			"pbrMetallicRoughness":{
				"baseColorFactor":[
					0.51491779088974,
					0.49102094769477844,
					0.40724021196365356,
					1
				],
				"metallicFactor":0,
				"roughnessFactor":0.5
			}
		},
		{
			"doubleSided":true,
			"name":"Material.017",
			"pbrMetallicRoughness":{
				"baseColorFactor":[
					0,
					0.0802198275923729,
					0.30054378509521484,
					1
				],
				"metallicFactor":0,
				"roughnessFactor":0.5
			}
		},
		{
			"doubleSided":true,
			"name":"Material.018",
			"pbrMetallicRoughness":{
				"baseColorFactor":[
					0.011612245813012123,
					0.09530749171972275,
					0.25818291306495667,
					1
				],
				"metallicFactor":0,
				"roughnessFactor":0.5
			}
		},
		{
			"doubleSided":true,
			"name":"Material.022",
			"pbrMetallicRoughness":{
				"baseColorFactor":[
					0.428690642118454,
					0.40197786688804626,
					0.32314327359199524,
					1
				],
				"metallicFactor":0,
				"roughnessFactor":0.5
			}
		}
	],
	"meshes":[
		{
			"name":"Cube.001",
			"primitives":[
				{
					"attributes":{
						"POSITION":0
					},
					"indices":1
				}
			]
		},
		{
			"name":"Cube.010",
			"primitives":[
				{
					"attributes":{
						"POSITION":2
					},
					"indices":3,
					"material":0
				},
				{
					"attributes":{
						"POSITION":4
					},
					"indices":5,
					"material":0
				}
			]
		},
		{
			"name":"Cube.034",
			"primitives":[
				{
					"attributes":{
						"POSITION":6
					},
					"indices":7,
					"material":1
				}
			]
		},
		{
			"name":"\ud559\uad50\ub9c8\ud06c\uc800\uc7a5\ud2c0",
			"primitives":[
				{
					"attributes":{
						"POSITION":8
					},
					"indices":9,
					"material":2
				},
				{
					"attributes":{
						"POSITION":10
					},
					"indices":11,
					"material":2
				}
			]
		},
		{
			"name":"\uac00\ucc9c\ub300\ud559\uad50",
			"primitives":[
				{
					"attributes":{
						"POSITION":12
					},
					"indices":13,
					"material":3
				}
			]
		},
		{
			"name":"slogan_3",
			"primitives":[
				{
					"attributes":{
						"POSITION":14
					},
					"indices":15,
					"material":4
				}
			]
		},
		{
			"name":"Cylinder.003",
			"primitives":[
				{
					"attributes":{
						"POSITION":16
					},
					"indices":17,
					"material":5
				},
				{
					"attributes":{
						"POSITION":18
					},
					"indices":19,
					"material":5
				}
			]
		}
	],
	"accessors":[
		{
			"bufferView":0,
			"componentType":5126,
			"count":8,
			"max":[
				5.504162788391113,
				0,
				8.488649368286133
			],
			"min":[
				-5.504162788391113,
				0,
				-8.488649368286133
			],
			"type":"VEC3"
		},
		{
			"bufferView":1,
			"componentType":5123,
			"count":36,
			"type":"SCALAR"
		},
		{
			"bufferView":2,
			"componentType":5126,
			"count":20,
			"max":[
				0.7503557205200195,
				12.773513793945312,
				19.6640682220459
			],
			"min":[
				-0.7503557205200195,
				-3.93369722366333,
				-0.5017882585525513
			],
			"type":"VEC3"
		},
		{
			"bufferView":3,
			"componentType":5123,
			"count":84,
			"type":"SCALAR"
		},
		{
			"bufferView":4,
			"componentType":5126,
			"count":142,
			"max":[
				0.7555294036865234,
				15.056863784790039,
				19.71436882019043
			],
			"min":[
				-0.7503557205200195,
				-3.942898750305176,
				-55.15250015258789
			],
			"type":"VEC3"
		},
		{
			"bufferView":5,
			"componentType":5123,
			"count":768,
			"type":"SCALAR"
		},
		{
			"bufferView":6,
			"componentType":5126,
			"count":159,
			"max":[
				2.5449275970458984,
				201.49732971191406,
				4.843255043029785
			],
			"min":[
				-2.561896324157715,
				-6.109566688537598,
				-5.031537055969238
			],
			"type":"VEC3"
		},
		{
			"bufferView":7,
			"componentType":5123,
			"count":870,
			"type":"SCALAR"
		},
		{
			"bufferView":8,
			"componentType":5126,
			"count":392,
			"max":[
				3.2985973358154297,
				2.795694351196289,
				6.662487506866455
			],
			"min":[
				-3.2985973358154297,
				-2.795694351196289,
				-6.662487506866455
			],
			"type":"VEC3"
		},
		{
			"bufferView":9,
			"componentType":5123,
			"count":1260,
			"type":"SCALAR"
		},
		{
			"bufferView":10,
			"componentType":5126,
			"count":768,
			"max":[
				2.7582719326019287,
				-2.795694351196289,
				4.762960433959961
			],
			"min":[
				-2.177914619445801,
				-3.650067090988159,
				-4.168821334838867
			],
			"type":"VEC3"
		},
		{
			"bufferView":11,
			"componentType":5123,
			"count":3384,
			"type":"SCALAR"
		},
		{
			"bufferView":12,
			"componentType":5126,
			"count":4272,
			"max":[
				5.7528395652771,
				0.04999999701976776,
				0.15966898202896118
			],
			"min":[
				0.04642857238650322,
				-0.04999999701976776,
				-0.8991289138793945
			],
			"type":"VEC3"
		},
		{
			"bufferView":13,
			"componentType":5123,
			"count":12672,
			"type":"SCALAR"
		},
		{
			"bufferView":14,
			"componentType":5126,
			"count":4831,
			"max":[
				50.76923370361328,
				3.8627452850341797,
				38.50574493408203
			],
			"min":[
				-50,
				-5,
				-39.275856018066406
			],
			"type":"VEC3"
		},
		{
			"bufferView":15,
			"componentType":5123,
			"count":28944,
			"type":"SCALAR"
		},
		{
			"bufferView":16,
			"componentType":5126,
			"count":68,
			"max":[
				1,
				1,
				1
			],
			"min":[
				-1,
				-1,
				-1
			],
			"type":"VEC3"
		},
		{
			"bufferView":17,
			"componentType":5123,
			"count":315,
			"type":"SCALAR"
		},
		{
			"bufferView":18,
			"componentType":5126,
			"count":233,
			"max":[
				1.744776725769043,
				1.452587604522705,
				1
			],
			"min":[
				-20.469181060791016,
				-1,
				-54.230262756347656
			],
			"type":"VEC3"
		},
		{
			"bufferView":19,
			"componentType":5123,
			"count":1305,
			"type":"SCALAR"
		}
	],
	"bufferViews":[
		{
			"buffer":0,
			"byteLength":96,
			"byteOffset":0,
			"target":34962
		},
		{
			"buffer":0,
			"byteLength":72,
			"byteOffset":96,
			"target":34963
		},
		{
			"buffer":0,
			"byteLength":240,
			"byteOffset":168,
			"target":34962
		},
		{
			"buffer":0,
			"byteLength":168,
			"byteOffset":408,
			"target":34963
		},
		{
			"buffer":0,
			"byteLength":1704,
			"byteOffset":576,
			"target":34962
		},
		{
			"buffer":0,
			"byteLength":1536,
			"byteOffset":2280,
			"target":34963
		},
		{
			"buffer":0,
			"byteLength":1908,
			"byteOffset":3816,
			"target":34962
		},
		{
			"buffer":0,
			"byteLength":1740,
			"byteOffset":5724,
			"target":34963
		},
		{
			"buffer":0,
			"byteLength":4704,
			"byteOffset":7464,
			"target":34962
		},
		{
			"buffer":0,
			"byteLength":2520,
			"byteOffset":12168,
			"target":34963
		},
		{
			"buffer":0,
			"byteLength":9216,
			"byteOffset":14688,
			"target":34962
		},
		{
			"buffer":0,
			"byteLength":6768,
			"byteOffset":23904,
			"target":34963
		},
		{
			"buffer":0,
			"byteLength":51264,
			"byteOffset":30672,
			"target":34962
		},
		{
			"buffer":0,
			"byteLength":25344,
			"byteOffset":81936,
			"target":34963
		},
		{
			"buffer":0,
			"byteLength":57972,
			"byteOffset":107280,
			"target":34962
		},
		{
			"buffer":0,
			"byteLength":57888,
			"byteOffset":165252,
			"target":34963
		},
		{
			"buffer":0,
			"byteLength":816,
			"byteOffset":223140,
			"target":34962
		},
		{
			"buffer":0,
			"byteLength":630,
			"byteOffset":223956,
			"target":34963
		},
		{
			"buffer":0,
			"byteLength":2796,
			"byteOffset":224588,
			"target":34962
		},
		{
			"buffer":0,
			"byteLength":2610,
			"byteOffset":227384,
			"target":34963
		}
	],
	"buffers":[
		{
			"byteLength":229996,
			"uri":"data:application/octet-stream;base64,"
		}
	]
}
